<?xml version="1.0" encoding="utf-8"?>
<!-- Generator: Adobe Illustrator 22.1.0, SVG Export Plug-In . SVG Version: 6.00 Build 0)  -->
<svg version="1.1" id="Layer_1" xmlns="http://www.w3.org/2000/svg" xmlns:xlink="http://www.w3.org/1999/xlink" x="0px" y="0px"
	 viewBox="0 0 303.9 315.1" style="enable-background:new 0 0 303.9 315.1;" xml:space="preserve">
<style type="text/css">
	.st0{fill:#FFFFFF;}
</style>
<path class="st0" d="M290.7,179.6c-4.1-5.3-10.1-14.1-18-26.3c-8-12.2-15.9-30.5-23.9-55c-4.4-13.5-9.8-26.2-16-38.1
	c-5.2-9.6-10.9-18.6-17.2-27.1c-5.9-8-13.7-14.7-23.4-20c-1.2-0.7-2.4-1.3-3.6-1.9c-9.8-4.9-21.5-8.5-34.9-10.9
	c-0.5-0.1-0.9-0.2-1.4-0.2h-0.7c-0.5,0-0.9,0.1-1.4,0.2c-13.4,2.4-25,6-34.9,10.9c-1.2,0.6-2.4,1.2-3.6,1.9
	c-9.6,5.3-17.4,12-23.4,20C82,41.6,76.2,50.7,71.1,60.2c-6.3,11.9-11.6,24.6-16,38.1c-7.9,24.4-15.9,42.8-23.9,55
	c-7.9,12.2-13.9,21-18,26.3C-1.6,199-4,216.8,6.1,233s24.4,30.4,42.9,42.4s40.1,22.8,65,32.4c12.6,4.8,25.2,7.2,37.9,7.1v0.1
	c12.7,0,25.4-2.4,38-7.2c24.8-9.6,46.5-20.4,65-32.4s32.8-26.1,42.9-42.4C307.9,216.8,305.5,199,290.7,179.6 M258.4,189.8
	c4.1,14.6,4.2,26.6,0.3,36c-3.9,9.4-8.6,17.4-14.2,23.9c-5.5,6.5-14.3,14-26.2,22.5c21.4-18,30.5-43.1,27.3-75.4
	c-4-26.7-11.5-46.1-22.4-58.1c-10.5-11.6-33.7-20.8-69.5-27.6c-0.7-0.1-1.3-0.2-2-0.3v-0.1c-0.7,0.1-1.3,0.3-2,0.4
	c-35.9,6.8-59,16-69.5,27.6c-10.9,12-18.4,31.4-22.4,58.1c-3.1,32.3,6,57.4,27.3,75.3c-11.9-8.4-20.7-15.9-26.2-22.4
	c-5.6-6.5-10.3-14.4-14.2-23.9c-3.9-9.4-3.8-21.4,0.3-36s10.6-29.4,19.4-44.5c8.7-14.9,20.8-29.5,36.1-44l0.2-0.1
	c-9,10.3-14.6,19.1-16.6,26.4c2.1-2.3,7.7-6,16.8-11.1c9-5.1,19.5-10.8,31.4-17.2c5.8-3.1,10.5-5.6,14-7.6c1.8-0.9,3.6-1.4,5.3-1.5
	c1.8,0.1,3.6,0.6,5.3,1.5c3.5,2,8.1,4.5,13.9,7.6c12,6.4,22.4,12.1,31.5,17.2s14.7,8.8,16.8,11.1c-2-7.3-7.6-16.1-16.6-26.4l0.2,0.1
	c15.4,14.5,27.4,29.1,36.1,44C247.8,160.3,254.3,175.2,258.4,189.8 M150.2,10.6l1.5-0.3l1.5,0.3c0.2,0.1,0.4,0.1,0.5,0.1
	c0.6,0.1,1.2,0.3,1.8,0.4c2.7,0.6,5.3,1.2,7.7,1.9c15.7,4.3,27.5,10.4,35.3,18.3c9.8,10,16.3,18,19.4,23.9l-31.2-15.8
	c-12.6-5.9-23.6-5.4-33,1.6c-0.2,0.1-0.4,0.3-0.5,0.4l-1.5,1.2l-1.5-1.2c-0.1-0.1-0.3-0.3-0.5-0.4c-9.4-7-20.4-7.5-33-1.6L85.6,55.2
	c3.1-5.9,9.6-13.8,19.4-23.9c7.8-7.9,19.5-14,35.3-18.3c2.4-0.7,5-1.3,7.7-1.9c0.6-0.1,1.2-0.3,1.8-0.4
	C149.9,10.7,150,10.7,150.2,10.6 M98.8,131.8c3.8-0.5,8.3-0.1,13.5,1.2c12.9,5.1,22.1,11.1,27.7,17.9c-2.9,1.2-7.2,2-12.9,2.5
	l-6.2-1.2c-4.8-1.1-9-2.3-12.5-3.7C102.2,145.9,99,140.3,98.8,131.8 M89.7,204.9l2.7-6.2c0.3,1.7,0.8,5.4,1.5,11.3
	c0.2,1.9,0.4,3.6,0.6,5.1v0.5h0.1c0.3,2.1,0.6,3.7,0.9,4.9l0.1,0.1c0.6,3.1,1.8,7.3,3.6,12.5c1.6,4.8,3.4,9.5,5.1,14.1
	c-1.8-4.9-2.4-11.9-2-20.9l1.1-10.2V216c0.2-0.1,0.4-0.1,0.6-0.2c0.5,4.2,2.5,9.6,5.8,16.2c-0.7-7.5-0.1-13.5,1.8-17.8
	c0.5-1.1,1-2.2,1.5-3.2c8.8-4.6,13.9-7.5,15.4-8.6c1.5-0.9,2.7-1.6,3.7-2.2c3.2-1.8,4.8-2.7,4.8-2.8c0.1-0.1,0.9,0.5,2.4,1.8
	c1.4,1.2,2.3,1.9,2.9,2.3c0.4,0.3,2.1,0.5,5.1,0.6h8.8c3-0.1,4.8-0.3,5.1-0.6c0.5-0.3,1.5-1.1,2.9-2.3c1.5-1.3,2.2-1.8,2.4-1.8
	c0,0.1,1.6,1,4.8,2.8c1,0.6,2.2,1.3,3.7,2.2c1.5,1.1,6.7,4,15.5,8.6c0.5,1,1,2,1.5,3.2c1.9,4.4,2.5,10.3,1.8,17.8
	c3.4-6.6,5.3-12,5.8-16.2c0.2,0.1,0.4,0.1,0.6,0.2v0.1l1.1,10.2c0.5,9-0.2,16-2,20.9c1.8-4.6,3.5-9.2,5.1-14.1
	c1.8-5.2,3-9.4,3.6-12.5l0.1-0.1c0.3-1.1,0.6-2.7,0.9-4.9h0.1V215c0.2-1.5,0.4-3.1,0.6-5.1c0.7-5.9,1.2-9.6,1.5-11.3l2.7,6.2
	c-3.7,27.1-7.4,42.5-11.2,46c-3.8,3.4-8.5,7.1-14.2,11.1c-16.6,11-28.9,16.5-36.6,16.6v-0.1c-7.8-0.1-20-5.6-36.6-16.5
	c-5.7-4-10.4-7.7-14.2-11.2C97.1,247.4,93.4,232.1,89.7,204.9 M141.6,185.8c2.2,0.8,3.7,1.3,4.7,1.4c1.5,0.4,2.7,0.7,3.7,0.8
	c0.8,0.1,1.4,0.2,1.7,0.1h0.2c0.3,0.1,0.9,0,1.7-0.1c0.9-0.1,2.1-0.4,3.7-0.8c0.9-0.1,2.5-0.6,4.7-1.4c1.5-0.6,3.1-1.6,4.9-2.9
	l0.2-0.2l1,2.8c-1.5,1.9-3.9,3.5-7.2,4.7c-0.7,1.8-3,3-7.1,3.6h-0.2l-0.9,0.1h-1.4l-0.9-0.1h-0.2c-4.1-0.5-6.5-1.7-7.1-3.6
	c-3.3-1.2-5.7-2.7-7.2-4.7l1-2.8l0.2,0.2C138.5,184.3,140.1,185.2,141.6,185.8 M191.1,133c5.2-1.3,9.7-1.7,13.5-1.2
	c-0.1,8.5-3.3,14.1-9.6,16.7c-3.5,1.4-7.7,2.6-12.5,3.7l-6.2,1.2c-5.7-0.5-10-1.3-12.9-2.5C169,144.1,178.3,138.1,191.1,133z"/>
</svg>
