<svg xmlns="http://www.w3.org/2000/svg" viewBox="0 0 825 211">
  <switch>
    <g>
      <path d="M806.7 145.7c.7-.3 1.2-.8 1.2-1.4 0-.6-.2-1-.6-1.3-.4-.2-.9-.4-2-.4-.9 0-1.7.1-2.2.2v5.8h1.3v-2.3h.6c.7 0 1.1.3 1.2.9.2.7.3 1.2.5 1.4h1.4c-.1-.2-.2-.6-.4-1.4-.1-.9-.4-1.3-1-1.5zm-1.6-.4h-.6v-1.7c.1 0 .4-.1.7-.1.8 0 1.2.4 1.2.9.1.6-.5.9-1.3.9zm.3-5.5c-3.3 0-5.9 2.6-5.9 5.8 0 3.3 2.6 5.8 5.9 5.8 3.3 0 5.9-2.6 5.9-5.8 0-3.3-2.6-5.8-5.9-5.8zm0 10.3c-2.6 0-4.5-2-4.5-4.6 0-2.5 1.9-4.6 4.5-4.6s4.4 2.1 4.4 4.6c0 2.6-1.8 4.6-4.4 4.6zM233 163.7c-.9 0-2.1.1-3.7.3-1.1.1-1.8.1-2.4.1-3.4 0-6.9-1.2-10.4-3.6-3.4-2.3-6.8-5.4-10-9.3-3.2-3.8-6.3-7.9-9.1-12.1-2.8-4.2-6.1-9.4-9.9-15.4-2.8-4.4-4.8-7.6-6.1-9.6l-.8-1.2 1.4-.4c1.5-.5 3.2-1.3 4.9-2.4 4.3-2.9 7.7-6.6 10.1-11 2.4-4.4 3.6-9.1 3.6-14 0-4.5-1.1-9-3.4-13.4-2.2-4.3-5.7-7.9-10.4-10.6-2.4-1.5-5.7-2.8-9.9-3.7-4.2-.9-8-1.4-11.3-1.4-2.7 0-10 .2-15.4.5-5.5.4-9.8.7-12.8.7-3.7 0-9.2-.3-16.4-1v.1c3 1.7 5.1 3.7 6.3 6 1.1 2.4 1.8 5.3 2 8.6.4 6.5.6 13.4.8 20.4.2 7 .3 14 .3 20.7 0 17.7-.1 17.1-.3 26-.1 2.9-1.1 5.5-3 7.5-1.7 1.8-3.9 3.5-6.5 4.9 6.2-.5 11.9-.8 17-.8 2.4 0 5 .1 7.6.2 2.3.1 5.4.3 9 .6-2.7-1.3-4.6-2.8-5.8-4.5-1.2-1.9-2-4.7-2.3-8.7-.6-10.8-.9-8.5-.9-20.8v-1l1-.1 1.6-.1c2.5-.3 4.4-.4 5.6-.4h9.2l.3.4c2.3 2.4 4.5 5.1 6.5 8.1 2 2.9 4.5 6.6 7.5 11 3.7 5.6 6.9 10.2 9.6 13.8 2.7 3.6 5.7 7 9.1 10.1 3.4 3.1 7.2 5.6 11.5 7.5 4.2 1.8 9 2.8 14.1 2.8 1 0 2.4-.2 4-.4 1.7-.3 3.3-.7 5-1.3 1.6-.6 3-1.1 4-1.8.4-.3.7-.5.9-.7-.2-.1-.3-.2-.6-.3-.3-.2-.9-.3-1.5-.3zm-76.7-53.9h-3.9c-2.5.1-4.5.1-6 .1h-1.1V94.1c0-10.2.2-17.8.5-22.5.1-.8.1-1.9.1-3.4 0-2.8.2-4.8.6-5.9l.3-.8h1.1c3.2-.4 5.5-.5 7-.5 3.5 0 9.8.2 12.4.6 2.7.4 5.2 1.4 7.4 2.9 2.8 1.9 5.1 4.7 6.8 8.4 1.7 3.6 2.6 7.5 2.6 11.3 0 9-1.8 15.6-5.4 19.6-3.5 4-13.2 6-22.4 6zm145.5-45.3h.1c-4.5-4.8-9.9-8.6-16.3-11.1-6.4-2.6-12.9-3.8-19.3-3.8-4.3 0-8.4.3-12.2.8-3.8.5-7.8 1.6-11.8 3.2-5.4 2.2-10.2 5.1-14.4 8.6-4.2 3.6-7.8 7.6-10.6 12.1-2.9 4.5-5.1 9.4-6.5 14.7-1.5 5.3-2.2 10.8-2.2 16.6 0 7.3 1.1 14.2 3.4 20.6 1 2.8 2.3 5.5 3.8 8.1-.5.2-.9.5-1.4.7-.8.4-1.7.9-2.6 1.3-1.4.6-2.4 1.6-3.3 2.6v.2c.1 0 .3.1.4.1.4.1.8.2 1.3.2.4 0 .8-.1 1.1-.2.4-.1.8-.2 1.2-.1.6.1 1.2 0 1.7-.4l3-2.1 1.5 2.1c-.1.3-.2.5-.3.8-.1.4-.2.7-.3 1.1v.5c.2 0 .4.1.6.1h2c.8.9 1.6 1.8 2.4 2.6 4.8 4.9 10.2 8.7 16.5 11.2 6.2 2.6 12.8 3.8 19.6 3.8 4.1 0 8.1-.3 11.9-.8 1.7-.2 3.4-.6 5.1-1 .2 0 .4-.1.5-.1 2-.5 4-1.2 6-2 5.3-2 10-4.8 14.2-8.4 4.2-3.6 7.7-7.7 10.5-12.3 2.8-4.6 5-9.6 6.5-14.9 1.5-5.3 2.3-10.7 2.3-16.3 0-7.4-1.1-14.3-3.3-20.8-2.2-6.3-5.9-12.3-11.1-17.7zM258.3 147c-4.8-.8-9.4-2.3-13.8-4.5-2.4-1.2-4.6-2.5-6.6-4 .2-.1.3-.3.5-.4.5-.5 1.1-.9 1.7-1.4-.4.8-1.2 1.3-1.4 2.3.5-.3.9-.8 1.7-.7-.2.3-.4.4-.5.6-.2.2-.3.3-.4.5 1-.4 1.9-.8 2.8-1.6 0 .2 0 .4.1.6 1-1.9 2.9-3.2 4.4-4.6v2c0 .3.1.6.1.9.1.3.3.6.6.7.2.1.3.2.5.2.4.2.7.5.7 1 0 .3.1.5.1.8.5.4 1.1.8 1.8 1.1.5.2 1 .5 1.5.8.5.3.9.7 1.4 1 .8.6 1.6 1.1 2.4 1.7.2.2.5.4.7.6.8.7 1.6 1.5 2.3 2.2.2.2.4.3.5.5-.3-.1-.7-.2-1.1-.3zm11.5-1.5c-.3.6-.4 1.2-.6 1.8-.1.1-.2.3-.3.4-.1 0-.2.1-.2.1h-1.9c-.2-.1-.5-.2-.7-.2-.6 0-1-.3-1.4-.6-.2-.2-.5-.4-.8-.5-.2-.1-.4-.2-.7-.3-.5-.2-.9-.5-1.4-.7-.2-.1-.5-.3-.7-.4-.7-.6-1.5-1.2-2.2-1.8-1.1-1-2.2-2.1-3.3-3.2-.3-.3-.6-.6-.9-.8-.3-.2-.4-.5-.4-.9 0-.6.1-1.2.1-1.8 0-.7.1-1.3-.2-2-.1-.4-.1-.9-.1-1.4 0-.3 0-.6-.2-.9-.2-.3-.1-.6.1-.8.5-.7 1.7-1.1 2.7-.9.4-.1.7-.5 1.1-.1.3-.1.5-.1.8-.2.1.1.1.2.2.3h.1c.7-.3 1.4-.2 2.1 0 .3.1.5.1.9.2.1.1.3.2.5.4 0 .2.1.4 0 .6-.2.6.1 1.1.5 1.6 0 0 .1.1.2.1.3 0 .5.3.5.4 0 .6.6.9 1 1.5.1-.2.1-.3.2-.5.3.5.5.8.8 1.2.5.7.9 1.5 1.4 2.2 1 1.4 1.7 2.9 2.4 4.4.1.1.1.3.2.4.6.9.6 1.6.2 2.4zm35.4-29.9c-.3 2.7-.8 5.4-1.6 8-1.5 4.9-3.8 9.1-6.9 12.5-3.1 3.4-6.7 6-10.8 8-2.9 1.4-6 2.3-9.2 3 0-.1-.1-.1-.1-.2-.1-.3-.4-.4-.8-.4-.9 0-.9 0-1.4-.7-.3-.4-.5-.8-.9-1.1l-.6-.3c.1-.1.1-.2.2-.3-.1-.1-.2-.2-.3-.4l-.4-.4c-.1-.8-.8-1.4-1.2-2.1-1.1-2-2.2-4-3.4-5.9-.2-.4-.2-.8.1-1.1h.4c.3-1.1.4-2.2 1.4-2.9.4 0 .8 0 1.1-.1.9-.1 1.8-.3 2.7-.4.3 0 .6-.1.8-.2.5-.2 1-.2 1.5-.4.7-.3 1.5-.4 2.2-.8.6-.3 1.2-.6 1.7-1 .8-.6 1.5-1.3 2.3-1.9.3-.3.7-.6 1-.8.1-.2.2-.3.3-.5.7-.6 1.1-1.4 1.7-2.1.1-.1.2-.3.5-.3.1 0 .2-.2.3-.3.2-.3.4-.7.5-1.1.1-.4.3-.7.9-.6.6-1.2 1.1-2.3 1.7-3.5.5-.1 1.1-.3 1.7-.5.5-.1 1-.4 1.4-.7.6-.6 1.3-1.2 2-1.8.1.1.3.2.5.4-.2.5-1 .6-1.1 1.3.2 0 .4-.1.6-.1-.3.6-.9.9-.8 1.7.3-.4.5-.6.8-.9-.1.4-.4.6-.2 1.1.6-.1 1.2-.2 1.6-.7.6-.7 1.1-1.3 1.2-2.2 0-.2.1-.4.2-.6v-5.2c-.1-.3-.2-.7-.2-1 0-.9-.1-1.8-.4-2.7-.3-1.2-.4-2.4-.2-3.6.2-1.3-.1-2.5-.5-3.7-.1-.2-.2-.4-.4-.6-.7-.8-1.4-1.6-2.2-2.5-.3-.4-.7-.8-1-1.2-.1-.2-.3-.3-.5-.4-.1-.1-.2-.1-.3-.2-.4-.5-.7-1-1.1-1.5l.2-.2c-.2-.2-.4-.3-.6-.5-.1-.1-.2-.3-.3-.5-.1-.1-.2-.3-.4-.4-.7-.9-1.5-1.8-2.3-2.6-.6-.6-.9-1.4-1.2-2.1-.1-.1-.2-.2-.3-.4l-1.5-2.1c-.2-.2-.4-.4-.6-.7-.4-.5-.8-1-1.1-1.5-.2-.4-.4-.8-.6-1.1-.2-.3-.5-.6-.8-.7-.9-.4-1.5-1.1-2.2-1.8-.9-.9-1.9-1.7-2.9-2.6l-.4-.4c.1-.1.3-.1.5-.2-.4-.1-.7-.2-1-.4.2-.2.4-.4.6-.5-.8-.2-1.5-.4-2.3-.3-.4.1-.8-.1-1.2-.2-.7-.1-1.5-.2-2.2-.3-.8-.2-1.7-.1-2.4-.6-.4 0-.8-.1-1.2-.1-.8-.1-1.5 0-2.2.2-.7.2-1.5.4-2.3.4-.4 0-.8 0-1.2.1-1.1.2-2.3.4-3.4.7-.9.2-1.7.7-2.5 1.2-.2.1-.5.2-.7.3-.2.1-.3.1-.5.1-1.3.4-2.6.9-3.9 1.3-.3.1-.7.2-1 .2-1.8.4-3.6.8-5.2 1.7-.2.1-.5.2-.8.3-1.7.7-2.8 1.8-3.7 3.1-.2.3-.3.7-.2 1 1 .1 2 .1 2.9.2 1.5.1 3 .1 4.5.1.7 0 1.4-.1 2.2-.1.4.6 1.1.7 1.8.7.8.1 1.6.1 2.3.3.9.1 1.7.4 2.4.9.3.2.6.4.9.5.6.3 1.1.7 1.4 1.2.4.6.8 1.2 1.3 1.8.4.6.4 1.2.2 1.8-.3.6-.6 1.2-.8 1.8-.1.1-.1.3-.2.5.3-.1.4-.1.7-.2-.3.6-.6 1.2-.9 1.9-.1 0-.2-.1-.3-.1-.6-.3-1.4-.3-1.9.1s-1 .7-1.6.8c-.8.2-1.3.6-1.6 1.2-.5.8-1.2 1.5-1.9 2.2-.4.3-.7.7-.9 1.1-.4.5-.7 1.1-1.3 1.5-.3.2-.5.5-.6.9 0 .2-.2.4-.4.5-1 .6-1.7 1.5-2.3 2.4-.2.3-.5.6-.8.9-.2.2-.3.5-.5.7.6.2.7-.2 1.1-.4 0 .1-.1.3-.1.4-.4.6-.8 1.2-1.3 1.8-.4.6-.8 1.1-1.3 1.6l-.3.3c-.8.6-1.7 1.2-2.5 1.9-.2.2-.5.3-.8.6 1.6.2 2.7-.7 4-1.2.1.4 0 .7-.2 1-.4.6-.7 1.1-1.2 1.6-.6.7-1.1 1.4-1.2 2.3-.1.6-.5 1.1-1 1.5-.3.3-.6.5-.6.9-.9.6-1.3 1.5-1.6 2.2.1.4.1.6.1.9 0 .4-.2.6-.6.8-1.2.5-2.2 1.3-3 2.1-.2.2-.4.4-.7.6-1.6.7-3.1 1.7-4.5 2.6-1.7-2.7-3.2-5.5-4.3-8.5-2.2-5.9-3.2-11.9-3.2-18.2 0-6.2.8-11.8 2.5-16.9 1.7-5 4.2-9.3 7.5-12.8s7.4-6.3 12.2-8.2c4.8-2 10.5-2.9 16.9-2.9 6.5-.1 12.6 1 18.2 3.4 5.6 2.3 10.7 5.8 15.3 10.5 4.7 4.8 8 10.1 10.1 15.7 2.1 5.6 3.1 11.8 3.1 18.5.2 2.4.1 5.1-.2 7.8zm-200.7 65.8c-15.6 0-29.6-4.7-41.5-14-12.3-9.6-21-22.6-25.7-38.8-3.3-11.4-3.5-23-3.5-33C34 78.5 39.3 63.2 49.7 50c7.6-9.6 17.4-16.6 28.9-20.8 9.9-3.6 20.4-5.4 31-5.4 8.7 0 17.7 1.2 26.9 3.6 14.6 3.9 25.4 11.5 32.3 22.9v-1.2c-.2-11.6-.5-23.5-1.7-35.6-3.8 2.9-8.2 4.4-13.1 4.4-1.3 0-2.7-.1-4.2-.3-3.7-.6-7.4-1.2-11-1.8-5.6-1-11.4-2-17.1-2.7-5.6-.7-11.1-1.1-16.4-1.1-12.7 0-24.4 2.1-35.7 6.3-20 7.5-35.5 19.8-45.9 36.5C10.3 76 6.4 99.3 12 123.9c3.3 14.2 10 27.1 19.9 38.1 8.4 9.3 18.1 16.5 29 21.4 11.5 5.2 23.8 7.8 36.4 7.8h2.7c1.4 0 2.7-.1 4.1-.1 4.3-.1 8.7-.2 12.8-.7 9.4-1.2 19.1-4.9 29.4-11.1 10.7-6.5 18.1-13.1 23.1-20.8.2-.3.3-.5.5-.8-16.8 12.9-34.6 20.4-54.5 23-3.7.5-7.4.7-10.9.7zM498.3 59.3s0-.1 0 0l-.5.1c.5-.1.6-.1.5-.1zm123.4 89.3c-1.3-.2-2.7-.9-4.2-2.2-1.5-1.3-3.1-2.9-4.8-5-.2-.4-.4-.7-.6-.9-.2-.3-.3-.5-.6-.7-3.1-5.9-5.7-10.9-7.9-14.9-2.1-4-3.7-7-4.7-9.1-.5-1-1-1.8-1.3-2.6-.3-.7-.6-1.3-.8-1.9-.8-1.3-1.4-2.5-2-3.6-.6-1-1.1-2-1.5-2.8-1.6-3.1-2.8-5.5-3.7-7.2-.9-1.7-1.3-2.6-1.4-2.9-.2-.4-.5-1.1-.9-1.9l-1.5-3c-3.6-7-6.5-12.5-8.7-16.6-2.1-4.1-3.8-7.3-5-9.6-1.6-3-2.7-5.3-3.4-6.9-.5-1.1-1.2-1.9-1.9-2.6-.4.6-.8 1.1-1 1.3-.2.3-.4.5-.5.5-1.5 3.1-3.3 6.7-5.4 10.9-2.1 4.2-4.5 9.2-7.3 14.8-1.8 3.4-3.4 6.4-4.7 9-1.3 2.6-2.4 4.6-3.3 6.3-1.3 2.6-2.4 4.9-3.3 7-.9 2.1-1.7 3.8-2.3 5.3-.9 1.5-1.6 2.9-2.2 4.1-.6 1.2-1.1 2.2-1.5 2.9-1.6 3.4-3.1 6.5-4.3 9.2-1.3 2.7-2.5 5.1-3.5 7.1-.2.2-.4.3-.5.3-3.4 7.3-7.6 12-12.5 14.1-.9.5-1.6.8-2.3 1.1-.6.3-1.1.5-1.4.7.2 0 .5.1.7.3.3.2.5.3.6.3h6c.2 0 .3-.1.2-.2-.1-.1 0-.2.2-.2s.3 0 .2.1h.3c.1 0 .3 0 .5.1s.4.1.6.1c.3 0 .4-.1.2-.3-.1-.1-.1-.1 0-.1.2 0 .3.1.3.3 0 .1.1.1.3.1.1 0 .2 0 .2-.1 0-.2.1-.3.2-.3h6.1c.2 0 .3.1.3.4l.5-.4c.5.1 1.1.1 1.6.1h6.6c.2 0 .6 0 1 .1.5.1.8.1 1 .1h2.6c.5-.3.8-.4.8-.5-3.9-1.4-6-2.3-6.4-2.7-2.1-1.3-3.2-3-3.2-5.1 0-.1.1-.5.2-1.3.2-.8.2-1.3.2-1.6 1-1.7 1.6-3.1 1.9-4.3l7.7-16c.1.1.3-.3.6-1.2.5-1.5 1.2-2.3 2.1-2.3h11.7l.2-.1c.2 0 .3.1.3.3 0 .1.1.1.3.1.2 0 .2-.1 0-.3-.1-.1-.1-.1.2-.1.2 0 .3.1.4.2.1.1.1.2.2.2.2 0 .8-.1 1.8-.2s1.5-.2 1.6-.2c.5 0 .9.1 1.1.4 0-.3.1-.4.2-.4h8c.2 0 .3.1.2.2-.1.1-.1.2.2.2h3.7c.4 0 .7 0 .8-.1h1.3c.5 0 1.1 0 1.6-.1 1.8 0 3.2.2 4 .7 1.2 1.3 1.9 2.2 2.1 3l7.6 15.1c.2.7.4 1.2.5 1.5 0 .4.1.8.3 1.3.2.5.5 1.3.8 2.2.9 1.9 1.3 3 1.3 3.4 0 2.5-2.1 4.6-6.3 6.2l-.3.4c-.6-.1-1.4.2-2.3.9 1.8.4 2.8.5 2.9.5h2.9c.1 0 .2 0 .4.1.2 0 .3.1.4.1.2 0 .3 0 .2-.1-.1 0-.1-.1.2-.1.2 0 .3 0 .2.1-.1 0 0 .1.2.1h2.1c.6 0 1.4 0 2.3-.1h6.3c.2 0 .5 0 1 .1.4.1.7.1 1 .1.1 0 .1 0 0-.1s-.1-.1.2-.1c.2 0 .3 0 .4.1.1.1.1.1.2.1.2 0 .3 0 .2-.1-.1-.1-.1-.1.2-.1h.3c0 .2.1.3.3.3l1-.1h5.6c.5.1.7.2.6.3.1 0 .3-.1.3-.1.1-.1.3-.1.5-.1h1c.1.1.3.1.6.1h1c2.7 0 4.2 0 4.5.1 0-.1.1-.2.3-.4-.5-.3-.9-.4-1-.4-.2-.1-.5-.3-1-.7zm-42.1-39.4h-3.1c-.3 0-.8 0-1.3-.1h-3.1c-.1 0-.2 0-.2.1-.1.1-.2.1-.4.1L557 109h-1.3c-.3.1-.8.1-1.3.1l-7.4-.3c-.2 0-.3-.1-.3-.4 0-.4 1.6-4 4.7-11l8.5-16 .3-.4 2.9-4.6h.6l16.2 31.6c.2.2 0 .6-.3 1.2zM434.3 54.8c-.2 0-.4.1-.6.2-.2.2-.3.2-.4.2h-13.7c0 .3-.1.5-.2.6.9 1.3 1.6 2.4 2.1 3.2.5.8.7 1.3.9 1.6.2.7.5 1.3.8 1.7.3.4.5.8.8 1.2.1.7.1 1.3 0 1.7.2.4.3.6.3.5-.1.2-.2.2-.5.1V68c-.1.3-.2.7-.3 1.1-.1.4-.1.8-.3 1.2-.5 1.8-.8 3.1-1.1 4-.3.9-.7 1.8-1.1 2.5.1.1.2.3.2.6l-1 2.8v.3c-.9 2.5-1.7 4.6-2.3 6.4-.6 1.8-1.2 3.3-1.8 4.6.1.2 0 1-.3 2.5-.2.4-.4.7-.5 1-.1.3-.3.6-.5 1-1 3-1.7 5-2 6.1-.3 1.1-.5 1.8-.6 2.2-.8 1.4-1.3 2.5-1.5 3.2-.2.7-.3 1.2-.3 1.5-.5.9-.9 1.8-1.2 2.5-.3.7-.6 1.3-.9 1.9-.1.3-.2.9-.2 1.7-.9 1.4-1.6 3.3-2.1 5.6-.2.2-.4.3-.5.3.3.3.4.6.2.8h-1.2c-1.3-3.3-2.3-6.2-3.2-8.7-.9-2.5-1.6-4.6-2.1-6.5-.2-.8-.5-1.8-.9-2.9-.4-1.1-.9-2.5-1.5-4.2-.2-.2-.4-.4-.4-.6-.1-.2-.1-.4-.3-.5.1-.1.2-.4.2-.8-1.6-4.1-2.6-7.3-3.1-9.4-1.7-5.3-3.1-9.4-4.2-12.5-1.1-3.1-1.8-5.3-2.1-6.5-.1-.3-.2-.7-.3-1.2-.1-.5-.2-1.2-.3-2-.9-2.4-1.7-4.5-2.2-6.3-.6-1.8-1-3.4-1.4-4.7-.3.3-.6.5-.9.5l-14.6 40.8c-.2 1-.5 1.9-.7 2.7-.2.8-.5 1.4-.7 1.9-.9 2.1-1.7 3.9-2.2 5.4-.6 1.5-1.1 2.8-1.5 3.7-.6 1.3-1 2.5-1.4 3.6-.3 1-.6 1.9-.9 2.5-.9 1.9-1.7 3.5-2.2 4.9-.6 1.4-1.1 2.5-1.5 3.5 0 .1-.1.2-.3.2-.3-.3-.6-.9-.7-1.7-.1-.8-.4-1.4-.9-1.7-.5-1.8-.8-3.2-1.1-4.2-.3-1.1-.5-1.8-.6-2.1-1.9-5.9-3.4-10.4-4.5-13.7-1-3.2-1.7-5.3-1.9-6.3-.1-.2-.2-.5-.2-.9v-.9c-.9-3-1.7-5.6-2.4-7.7-.7-2.2-1.3-4-1.9-5.4-.2-.9-.4-1.7-.5-2.4-.1-.7-.3-1.3-.5-1.8-.2-.7-.4-1.1-.5-1.2-.2-1.1-.5-2.1-.7-3-.2-.9-.4-1.7-.5-2.4v-4.5c.2-.6.3-1.3.3-2.2.1-.1.6-1 1.5-2.6.5-1.2 1.1-2.2 2.1-2.8 1.1-.7 1.7-1.4 1.7-2l-.3-.2-.7-.6c-1.3.3-2 .5-2.2.5-.2 0-.8.1-1.7.2-.9.1-1.4.2-1.5.2-.2 0-.4-.1-.4-.2-.1-.2-.2-.2-.4-.2-.1 0-.6 0-1.4.1-.8.1-1.9.1-3.4.2-1.4 0-2.4 0-3.1.1-.7.1-1.2.1-1.5.1-.2 0-.3.1-.2.2h-2.9c-.8 0-1.8.1-3.1.2h-8.2c-.1.2-.3.4-.7.5 3.1 1.8 5.7 4.5 7.7 8.3.9 1.2 1.6 2.3 2.1 3.2.5.9.9 1.6 1.1 2.1.7 2.6 1.3 4.6 1.7 6 .5 1.4.7 2.4.9 2.9.6 1.4 1 2.8 1.4 3.9.3 1.2.7 2.2 1 3l13.5 44.3c.2.6.5 1.2.7 1.8.2.6.5 1.1.7 1.5-.1 0-.2.1-.2.2 1 3.2 1.9 5.7 2.5 7.6.6 1.9 1.1 3.2 1.3 3.9.2 1 .3 1.5.3 1.4 1.1 3.2 2 5.6 2.7 7.2.6 1.6 1 2.5 1.1 2.7.3-.4.6-.7.9-1 .2-.3.4-.4.5-.5l10.5-25.2 7.2-18.9c.8-1.9 1.5-3.5 2.1-4.9.6-1.4 1-2.6 1.2-3.6.5-1.2.9-2.3 1.2-3.2.3-.9.6-1.8.9-2.5.6-1.1 1-2.1 1.2-3 .2-.9.5-1.6.7-2.2.1-.3.3-.5.5-.5.9.9 1.5 1.8 1.7 2.5l12.9 35.7c0 .2-.1.4-.2.5 1.3 2.7 2.3 5.1 3.1 7.2.8 2.1 1.5 3.9 2.1 5.5 1 2.6 1.9 4.7 2.7 6.5.8 1.8 1.5 3 2.1 3.9 1.3-2.7 1.9-4.7 2.1-6.2.2-.2.3-.4.3-.5 1.1-3.1 2.1-5.8 3-8 .9-2.3 1.6-4.2 2.1-5.7.2-.5.5-1.1.9-1.7.3-.9.7-1.8.9-2.5.3-.7.5-1.3.8-1.9.1-.3.2-.7.2-1.2.6-1.5 1-3 1.2-4.3.6-1.5 1.1-2.9 1.5-4 .5-1.1.9-2.1 1.2-2.9.1-.4.2-.7.3-.9.1-.2.1-.3.1-.5.9-2.2 1.7-4.1 2.4-5.7.7-1.6 1.3-3 1.9-4.2.6-1.5 1.1-3 1.5-4.4.5-1.4.9-2.8 1.4-4.1l.5-.5c.5-1.2 1-2.7 1.5-4.4.6-1.7 1.3-3.7 2.1-5.9l.2-.2c0-.1.1-.2.2-.3.2-1.2.5-2.2.7-2.9.2-.7.4-1.2.5-1.4.2-.8.5-1.5.9-2.2.3-.6.7-1.2 1-1.7 1.1-3.4 3.2-7.5 6.2-12.2 1.3-1.4 2.4-2.7 3.3-3.6 1-1 1.7-1.7 2.1-2.2v-.9c-1-.1-2-.2-2.9-.2h-6.4zm359.8 80.3l-1 .5c-.8 2.7-2.5 4.8-5.1 6.2-1.3.7-2.6 1.2-3.9 1.5-1.3.3-2.8.4-4.3.4-6.1-.2-12.1-.3-18.1-.3-6 0-12 0-18.1.2.2-13.2.3-26.3.3-39.3 0-13 0-26.1-.1-39.3 0-2.3.8-4.2 2.3-5.7 1.6-1.5 3.7-2.3 6.3-2.3l1.2-.6-.7-1.2-.6-.4-15.9-.3c-5.2-.1-10.5-.3-15.9-.7l-1.2.5.6.9c.2.3.5.5.8.8 2.6.2 4.7 1.1 6.5 2.8 1.7 1.7 2.7 3.7 2.8 6 .6 12.6.8 25.2.9 37.7 0 12.6-.3 25.1-.9 37.7-.2 2.2-1.1 4.1-2.8 5.9-1.7 1.7-3.8 2.6-6.4 2.8l-1.2.7.6 1.2.6.2c11.8-.6 23.5-.9 35-.9 11.6 0 23.3.2 35 .6.2-.2.5-.2.8-.2.5 0 .7-.1.8-.4.5-1.1.8-2.2 1-3.4.2-1.2.5-2.4.8-3.5.4-1.1.7-2.3 1-3.5.3-1.2.6-2.3.9-3.5l-.7-1.1h-1.3zm-89.4 0l-1 .5c-.8 2.7-2.5 4.8-5.1 6.2-1.3.7-2.6 1.2-3.9 1.5-1.3.3-2.8.4-4.3.4-6.1-.2-12.1-.3-18.1-.3-6 0-12 0-18.1.2.2-13.2.3-26.3.3-39.3 0-13 0-26.1-.1-39.3 0-2.3.8-4.2 2.3-5.7 1.6-1.5 3.7-2.3 6.3-2.3l1.2-.6-.7-1.2-.6-.4-15.9-.3c-5.2-.1-10.5-.3-15.9-.7l-1.2.5.6.9c.2.3.5.5.8.8 2.6.2 4.7 1.1 6.5 2.8 1.7 1.7 2.7 3.7 2.8 6 .6 12.6.8 25.2.9 37.7 0 12.6-.3 25.1-.9 37.7-.2 2.2-1.1 4.1-2.8 5.9-1.7 1.7-3.8 2.6-6.4 2.8l-1.2.7.6 1.2.6.2c11.8-.6 23.5-.9 35-.9 11.6 0 23.3.2 35 .6.2-.2.5-.2.8-.2.5 0 .7-.1.8-.4.5-1.1.8-2.2 1-3.4.2-1.2.5-2.4.8-3.5.4-1.1.7-2.3 1-3.5.3-1.2.6-2.3.9-3.5l-.7-1.1h-1.3zM615.5 150h-.2.2zM477.2 97.7c0-.1.1-.2.1-.4-.2.2-.2.3-.1.4zm34.1-36.4c.3 0 .5.1.6.1h.5c.2 0 .2.1 0 .3-.1.1-.1.1.2.1l.6-.1c.6 0 1.3.4 2.1 1 .5.5 1 1 1.5 1.4.5.4.9.8 1.4 1.1.5.7 1 1.3 1.4 1.8.4.5.8.9 1.1 1.3.9 1.5 1.6 2.8 2.3 3.8.7 1 1.2 2 1.5 2.8.1-1.1.1-2 .1-2.8-.1-.8-.1-1.5-.2-2.2-.2-.2-.3-.5-.3-.9l.3-.9c-.3-1.9-.6-3.7-.9-5.4-.3-1.7-.5-3.3-.7-4.9 0-.6.1-1 .2-1.3-.1-.3-.2-.7-.2-1.2s-.1-.8-.2-.9c-1.2-.4-2.3-.6-3.4-.6-.2 0-.3.1-.2.2v.1c-.2 0-.4-.1-.7-.2-1-.2-1.7-.2-2.3 0-.6-.1-1.1-.2-1.3-.2-.2 0-.2-.1 0-.1h-.8c-.1 0-1.9.1-5.5.4-1.8.1-3.2.2-4.1.2-.9.1-1.4.1-1.5.1h-.2l.2-.1v-.1h-1.3l-.5.3h-11.7c-.4 0-.5-.1-.3-.3l-.5.3h-4c-.4 0-.8-.1-1-.3h-1l-.5.3h-1.6l-.5-.3c-.6.3-1.3.4-2.1.4-.3 0-.5-.1-.5-.4l-.5.3c-.2-.1-.6-.1-1.1-.1-.3 0-.5 0-.5-.1v.3l-.3-.3c0 .2-.1.3-.2.3-.5 0-.9.1-1 .1l-.5-.4c0 .1-.2.1-.5.1-.1 0-.2 0-.2-.1h-.2c-.2 0-.4.1-.5.2-.1.1-.3.2-.6.2h-.2c0-.1.1-.1.2-.1.1-.1.1-.1-.2-.1l-2.9.1c-.1 0-.3 0-.6.1s-.5.1-.6.1c-.2 0-.3 0-.2-.1.1-.1.1-.1-.2-.1-.1 0-.2.1-.3.1-.1.1-.2.1-.3.1-.2 0-.3 0-.2-.1.1-.1.1-.1-.2-.1-.2 0-.3.1-.2.1h-.3c-.2 0-.3-.1-.3-.3l-.5.3-.5-.3-.5.3c-.4-.1-.9-.2-1.3-.3-.1 0-.1.1-.1.1.1.1 0 .1-.2.1h-1.4c-.4-.1-.9-.1-1.3-.1-.1 0-.2 0-.2-.1h-.3c-.1 0-.1.1 0 .1.1.1.1.1-.2.1-.2 0-.3 0-.2-.1.1-.1.1-.1 0-.1-.2 0-.5.1-1 .3-.8-.1-1.4-.1-2.1 0-.3-.1-.6-.2-1-.3-.2 0-.3.1-.2.1.1.1.1.1-.2.1l-1-.1c-.1 0-.3-.1-.5-.2s-.4-.2-.6-.2c-.2 0-.4.1-.5.1-.1.1-.3.1-.5.1s-.4 0-.5-.1c-.1-.1-.3-.1-.5-.1s-.2.1 0 .3c.1.1.1.1-.2.1l-1.1-.1-.8.6c2.3.2 4.6 1.8 7.1 4.8 1.8 2 3.1 4.7 3.7 8.2.1 1.5.2 2.8.2 3.8.1 1 0 1.9-.1 2.6.3 4.4.5 7 .5 7.8v15.4c0 .3.1.7.2 1.2v3.3c.1.1.2.2.2.3l.2.1v24.5c-.1.1-.2.1-.3.1-.1 1.5-.2 2.8-.2 3.8-.1 1 0 1.8.1 2.3v2.8c0 1-.1 1.6-.2 1.9-.8 1.3-1.1 2.4-1.1 3.3-.2.5-.4.9-.6 1.1-.2.2-.4.5-.5.7-1.2 1.8-2.4 3-3.5 3.6-1.2.6-1.7.9-1.6.9-.8.2-1.2.3-1.3.4-.1.1-.8.4-2.1 1-.9.2-1.3.4-1.3.7.2 0 .4 0 .5.1h1.1c.2 0 .3 0 .2-.1-.1-.1 0-.1.2-.1.1 0 .4 0 .8.1.4 0 .7.1 1 .1l2.4-.1c.1 0 .1 0 0 .1-.2.2-.2.3.2.3.2 0 .7-.1 1.4-.1.7-.1 1.2-.1 1.5-.1.6-.1 1.2-.1 1.8-.1h4.3c.3 0 .7 0 1.3-.1.5 0 .9-.1 1.1-.1.1 0 .1.1 0 .1h.2c.2 0 .4 0 .6.1h.5c.2 0 .2 0 .1-.1-.2-.1-.1-.1.1-.1h2.3c-.2-.1 1.2-.1 4.2-.1h.8c.6 0 1.2 0 1.6-.1h2.6c.2 0 .3.1.2.1-.1.1 0 .1.2.1h2.6c.1 0 .2 0 .2-.1.1-.1.2-.1.4-.1s.5.1.9.1c.4.1.7.1.9.1.1 0 .2 0 .3-.1.1-.1.3-.1.5-.1 1.2 0 1.8.1 1.9.1l.5-.4c.3 0 .4 0 .3-.1-.6-.3-.9-.4-.8-.4-.2 0-.6-.1-1-.4-.5-.3-.8-.4-1-.4-.1 0-.2 0-.3-.1-.1-.1-.2-.1-.3-.1h-.3c0-.2-.1-.3-.3-.4-.2 0-.4-.2-.6-.4h-.3c-.6 0-1.8-.9-3.4-2.7-.4-.4-.8-.7-1-1l-.7-.7c-1.1-1-1.6-1.7-1.6-2.2 0-.7-.2-1-.5-1-.1 0-.3.1-.3.1-.2-1.7-.4-2.9-.5-3.7-.1-.8-.2-1.2-.2-1.3 0-4.3-.2-9.4-.5-15.3.1-.5.2-1.1.2-1.7.1-.6 0-1.4-.1-2.2l-.3-.9c0-.3.2-.4.5-.4 0-.3-.1-.8-.2-1.5s-.2-1.1-.2-1.3v-3.1c0-1.2.1-1.9.2-2.2l.8-.7c1.3-.3 2.4-.4 3.4-.4.2 0 .4.1.6.3l.3-.3h5.3l.3.1.5-.4c.1.3.3.4.5.4h1.4c.9 0 1.6 0 2.1-.1h3.7c.2 0 .7.1 1.4.4.7.2 1.2.4 1.5.4v.1c-.1.1-.1.1.2.1h.6l.5.4.3-.3.2.4c1.5.5 3.2 1.8 5.1 4 .2.2.6.7 1.2 1.6.6.9 1.5 2.2 2.7 3.9-.1.1-.2.3-.2.4-.2.3 0 .4.6.4 0-.1.1-.3.2-.6s.2-.5.2-.7v-7.3c-.4-1.6-.6-2.9-.5-3.9.1-.5.2-1.2.2-2.2v-1.9c-.2-.9-.3-1.9-.4-3.1-.1-1.1-.1-2.4-.1-3.8 0-.5.1-.8.2-.9-.1-.1-.2-.4-.2-.9-.2-2.4-.4-4.2-.5-5.4l-1.1.9c-.4.6-.8 1.1-1.1 1.6-.3.4-.6.9-.8 1.3-2.8 5-6.6 7.7-11.6 8.1-.2.3-.4.4-.5.4l-.5-.4c0 .2-.1.3-.2.3h-1.1c-.2 0-.5.1-1 .3-.4.2-.7.3-.8.3h-2.1c-.2 0-.4-.1-.6-.2-.2-.1-.4-.2-.5-.2-.1 0-.6.1-1.4.2-.8.1-1.4.2-1.7.2 0 .2-.1.3-.3.3-.2 0-.2-.1 0-.3.1-.1.1-.1-.2-.1-.2 0-.5.1-1 .4-.5 0-.8-.2-.8-.6 0 .2-.1.3-.2.3-.2 0-.3 0-.4-.1-.1.3-.3.4-.6.4.1 0-.2-.1-.8-.3-.2-.1-.5-.1-1 0l-.5-.4h-.6l-.6-.4c0-1 0-1.8-.1-2.5-.1-.6-.1-1.2-.2-1.7-.2-.2-.2-.5 0-1 .1-.2.2-.5.2-1-.1 0-.2 0-.3-.1l.2-.1h.2c0-2.2-.2-6.6-.5-13.2v-8.5c0-1.4 0-2.6.1-3.7s.1-2 .2-2.8c.3-.9 1.2-1.3 2.7-1.3.2 0 .6-.1 1.2-.3.6-.2.9-.3 1-.3.2 0 .3 0 .4.1.1.1.2.1.4.1s.6-.1 1.1-.4h.3l3.2.1c.2 0 .9-.2 2.1-.5 1.2-.3 1.9-.5 2.1-.5h.6c.5 0 1.1.1 1.6.1h3.1l.3-.4c.3.3.4.4.3.4h.8c.2-.1.6-.1 1.1-.1h1.1c.2.1.5.1 1 .1.5.1.8.2.9.2l1.2-.2.2.3.3-.4c.7.1 1.5.2 2.2.2.7.1 1.4.1 2 .2 1.3.3 2.5.5 3.5.7 1.1.2 1.9.4 2.6.6l.5.4.2-.3.5-.4z"/>
    </g>
  </switch>
</svg>
